<svg xmlns="http://www.w3.org/2000/svg" viewBox="0 0 800 500" fill="none">
  <defs>
    <linearGradient id="bg" x1="0%" y1="0%" x2="100%" y2="100%">
      <stop offset="0%" stop-color="#0f0f0f"/>
      <stop offset="100%" stop-color="#1a1a2e"/>
    </linearGradient>
    <linearGradient id="purple" x1="0%" y1="0%" x2="100%" y2="0%">
      <stop offset="0%" stop-color="#7c3aed"/>
      <stop offset="100%" stop-color="#a855f7"/>
    </linearGradient>
    <linearGradient id="green" x1="0%" y1="0%" x2="100%" y2="0%">
      <stop offset="0%" stop-color="#10b981"/>
      <stop offset="100%" stop-color="#34d399"/>
    </linearGradient>
  </defs>

  <!-- Background -->
  <rect width="800" height="500" fill="url(#bg)" rx="12"/>

  <!-- Header -->
  <rect x="0" y="0" width="800" height="56" fill="#111111" rx="12"/>
  <rect x="0" y="40" width="800" height="16" fill="#111111"/>

  <!-- Logo -->
  <circle cx="32" cy="28" r="12" fill="url(#purple)"/>
  <text x="52" y="33" fill="white" font-family="system-ui" font-size="16" font-weight="600">connect</text>

  <!-- Nav Items -->
  <text x="620" y="33" fill="#888" font-family="system-ui" font-size="13">Routes</text>
  <text x="690" y="33" fill="#888" font-family="system-ui" font-size="13">Files</text>
  <text x="750" y="33" fill="#888" font-family="system-ui" font-size="13">Settings</text>

  <!-- Sidebar -->
  <rect x="0" y="56" width="200" height="444" fill="#0a0a0a"/>

  <!-- Device Card -->
  <rect x="16" y="72" width="168" height="70" rx="8" fill="#1a1a1a" stroke="#333" stroke-width="1"/>
  <circle cx="36" cy="92" r="8" fill="url(#green)"/>
  <text x="52" y="96" fill="white" font-family="system-ui" font-size="13" font-weight="500">My Comma 3X</text>
  <text x="52" y="116" fill="#666" font-family="system-ui" font-size="11">Online - 2 min ago</text>
  <rect x="24" y="126" width="60" height="6" rx="3" fill="#1f1f1f"/>
  <rect x="24" y="126" width="45" height="6" rx="3" fill="url(#green)"/>
  <text x="90" y="132" fill="#666" font-family="system-ui" font-size="10">75% storage</text>

  <!-- Folder Tree -->
  <text x="24" y="172" fill="#888" font-family="system-ui" font-size="12" font-weight="500">FILES</text>

  <text x="24" y="200" fill="#a855f7" font-family="system-ui" font-size="13">realdata/</text>
  <text x="40" y="224" fill="#ccc" font-family="system-ui" font-size="12">2024-01-08--10-15-30/</text>
  <text x="40" y="248" fill="#888" font-family="system-ui" font-size="12">2024-01-07--18-42-15/</text>
  <text x="40" y="272" fill="#888" font-family="system-ui" font-size="12">2024-01-06--09-30-22/</text>
  <text x="24" y="304" fill="#888" font-family="system-ui" font-size="13">logs/</text>
  <text x="24" y="328" fill="#888" font-family="system-ui" font-size="13">params/</text>

  <!-- Main Content Area -->
  <rect x="216" y="72" width="568" height="412" rx="8" fill="#111"/>

  <!-- File Browser Header -->
  <rect x="216" y="72" width="568" height="48" rx="8" fill="#1a1a1a"/>
  <rect x="216" y="104" width="568" height="16" fill="#1a1a1a"/>
  <text x="232" y="102" fill="white" font-family="system-ui" font-size="14" font-weight="500">realdata / 2024-01-08--10-15-30</text>

  <!-- Action buttons -->
  <rect x="636" y="84" width="64" height="28" rx="6" fill="url(#purple)"/>
  <text x="650" y="103" fill="white" font-family="system-ui" font-size="11" font-weight="500">Upload</text>
  <rect x="708" y="84" width="64" height="28" rx="6" fill="#333" stroke="#444" stroke-width="1"/>
  <text x="716" y="103" fill="#ccc" font-family="system-ui" font-size="11">Download</text>

  <!-- File List -->
  <rect x="232" y="136" width="536" height="40" rx="6" fill="#1f1f1f"/>
  <rect x="248" y="148" width="16" height="16" rx="3" fill="#3b82f6"/>
  <text x="276" y="161" fill="white" font-family="system-ui" font-size="13">fcamera.hevc</text>
  <text x="520" y="161" fill="#666" font-family="system-ui" font-size="12">124.5 MB</text>
  <text x="620" y="161" fill="#666" font-family="system-ui" font-size="12">2 hours ago</text>

  <rect x="232" y="184" width="536" height="40" rx="6" fill="transparent"/>
  <rect x="248" y="196" width="16" height="16" rx="3" fill="#3b82f6"/>
  <text x="276" y="209" fill="#ccc" font-family="system-ui" font-size="13">ecamera.hevc</text>
  <text x="520" y="209" fill="#666" font-family="system-ui" font-size="12">98.2 MB</text>
  <text x="620" y="209" fill="#666" font-family="system-ui" font-size="12">2 hours ago</text>

  <rect x="232" y="232" width="536" height="40" rx="6" fill="transparent"/>
  <rect x="248" y="244" width="16" height="16" rx="3" fill="#10b981"/>
  <text x="276" y="257" fill="#ccc" font-family="system-ui" font-size="13">rlog.bz2</text>
  <text x="520" y="257" fill="#666" font-family="system-ui" font-size="12">15.8 MB</text>
  <text x="620" y="257" fill="#666" font-family="system-ui" font-size="12">2 hours ago</text>

  <rect x="232" y="280" width="536" height="40" rx="6" fill="transparent"/>
  <rect x="248" y="292" width="16" height="16" rx="3" fill="#10b981"/>
  <text x="276" y="305" fill="#ccc" font-family="system-ui" font-size="13">qlog.bz2</text>
  <text x="520" y="305" fill="#666" font-family="system-ui" font-size="12">8.4 MB</text>
  <text x="620" y="305" fill="#666" font-family="system-ui" font-size="12">2 hours ago</text>

  <rect x="232" y="328" width="536" height="40" rx="6" fill="transparent"/>
  <rect x="248" y="340" width="16" height="16" rx="3" fill="#f59e0b"/>
  <text x="276" y="353" fill="#ccc" font-family="system-ui" font-size="13">qcamera.ts</text>
  <text x="520" y="353" fill="#666" font-family="system-ui" font-size="12">45.1 MB</text>
  <text x="620" y="353" fill="#666" font-family="system-ui" font-size="12">2 hours ago</text>

  <!-- Storage info bar -->
  <rect x="232" y="448" width="536" height="24" rx="4" fill="#1a1a1a"/>
  <text x="248" y="465" fill="#888" font-family="system-ui" font-size="11">5 items selected - 291.0 MB total</text>
  <text x="680" y="465" fill="#666" font-family="system-ui" font-size="11">256 GB free</text>
</svg>
